<?xml version="1.0" encoding="UTF-8" standalone="no"?>
<!-- Created with Inkscape (http://www.inkscape.org/) -->

<svg
   xmlns:dc="http://purl.org/dc/elements/1.1/"
   xmlns:cc="http://creativecommons.org/ns#"
   xmlns:rdf="http://www.w3.org/1999/02/22-rdf-syntax-ns#"
   xmlns:svg="http://www.w3.org/2000/svg"
   xmlns="http://www.w3.org/2000/svg"
   xmlns:sodipodi="http://sodipodi.sourceforge.net/DTD/sodipodi-0.dtd"
   xmlns:inkscape="http://www.inkscape.org/namespaces/inkscape"
   id="svg3080"
   version="1.1"
   inkscape:version="0.48.4 r"
   width="744.09447"
   height="1052.3622"
   xml:space="preserve"
   sodipodi:docname="Nouveau document 7"><metadata
     id="metadata3086"><rdf:RDF><cc:Work
         rdf:about=""><dc:format>image/svg+xml</dc:format><dc:type
           rdf:resource="http://purl.org/dc/dcmitype/StillImage" /><dc:title></dc:title></cc:Work></rdf:RDF></metadata><defs
     id="defs3084" /><sodipodi:namedview
     pagecolor="#ffffff"
     bordercolor="#666666"
     borderopacity="1"
     objecttolerance="10"
     gridtolerance="10"
     guidetolerance="10"
     inkscape:pageopacity="0"
     inkscape:pageshadow="2"
     inkscape:window-width="1920"
     inkscape:window-height="1009"
     id="namedview3082"
     showgrid="false"
     inkscape:snap-bbox="true"
     inkscape:bbox-paths="true"
     inkscape:snap-bbox-edge-midpoints="true"
     inkscape:zoom="1.7000718"
     inkscape:cx="338.68758"
     inkscape:cy="863.57391"
     inkscape:window-x="-8"
     inkscape:window-y="-8"
     inkscape:window-maximized="1"
     inkscape:current-layer="g3088" /><g
     id="g3088"
     inkscape:groupmode="layer"
     inkscape:label="principeAlgoGenerique"
     transform="matrix(1.25,0,0,-1.25,0,1052.3622)"><g
       transform="matrix(1,0,0,-1,0,841.88977)"
       id="g3092"><path
         inkscape:connector-curvature="0"
         id="path3094"
         style="fill:#999999;fill-opacity:1;fill-rule:evenodd;stroke:#000000;stroke-width:0.80000001;stroke-linecap:butt;stroke-linejoin:miter;stroke-miterlimit:4;stroke-opacity:1;stroke-dasharray:none"
         d="m 35.27,137.5 91.172,0 0,49.246 -91.172,0 0,-49.246 z" /></g><text
       id="text3096"
       transform="scale(1.2082094,-0.82767112)"
       x="32.782555"
       y="-837.49359"
       style="font-size:9.93205357px"><tspan
         id="tspan3098"
         sodipodi:role="line"
         y="-837.49359"
         x="32.782555 38.85141 41.161427 46.754097 52.245449 55.892841 58.202854 61.586826 67.230156 75.730606 81.059845"
         style="font-size:10.13164616px;font-variant:normal;font-weight:normal;writing-mode:lr-tb;fill:#000000;fill-opacity:1;fill-rule:nonzero;stroke:none;font-family:Tahoma;-inkscape-font-specification:Tahoma">Algorithme </tspan><tspan
         id="tspan3100"
         sodipodi:role="line"
         y="-824.82904"
         x="32.782555 38.375225 43.420784 49.06411 54.373093 62.873547 65.183563 70.77623 76.419556 81.779198"
         style="font-size:10.13164616px;font-variant:normal;font-weight:normal;writing-mode:lr-tb;fill:#000000;fill-opacity:1;fill-rule:nonzero;stroke:none;font-family:Tahoma;-inkscape-font-specification:Tahoma">dynamique </tspan><tspan
         id="tspan3102"
         sodipodi:role="line"
         y="-812.16449"
         x="32.782555 38.375225 43.684208 48.202923 53.532166 56.693241 61.242352 66.885681 70.533066 73.694145 79.367867 85.011192"
         style="font-size:10.13164616px;font-variant:normal;font-weight:normal;writing-mode:lr-tb;fill:#000000;fill-opacity:1;fill-rule:nonzero;stroke:none;font-family:Tahoma;-inkscape-font-specification:Tahoma">basé sur un </tspan><tspan
         id="tspan3104"
         sodipodi:role="line"
         y="-799.49994"
         x="32.782555 41.283005 46.774357 52.367027 57.696274 60.00629 65.335533 68.496613 74.089279 79.448914 85.092247 90.421486 94.099281 99.408264"
         style="font-size:10.13164616px;font-variant:normal;font-weight:normal;writing-mode:lr-tb;fill:#000000;fill-opacity:1;fill-rule:nonzero;stroke:none;font-family:Tahoma;-inkscape-font-specification:Tahoma">modèle général</tspan></text>
<path
       inkscape:connector-curvature="0"
       id="path3106"
       style="fill:#00c600;fill-opacity:0.42259402;fill-rule:nonzero;stroke:none"
       d="m 188.781,704.73 114.449,0 c 3.512,0 6.34,-3.411 6.34,-7.645 l 0,-34.637 c 0,-4.238 -2.828,-7.648 -6.34,-7.648 l -114.449,0 c -3.511,0 -6.34,3.41 -6.34,7.648 l 0,34.637 c 0,4.234 2.829,7.645 6.34,7.645 z" /><g
       transform="matrix(1,0,0,-1,0,841.88977)"
       id="g3108"><path
         inkscape:connector-curvature="0"
         id="path3110"
         style="fill:none;stroke:#000000;stroke-width:1.67375803;stroke-linecap:butt;stroke-linejoin:miter;stroke-miterlimit:4;stroke-opacity:1;stroke-dasharray:none"
         d="m 188.781,137.16 114.449,0 c 3.512,0 6.34,3.41 6.34,7.645 l 0,34.636 c 0,4.239 -2.828,7.649 -6.34,7.649 l -114.449,0 c -3.511,0 -6.34,-3.41 -6.34,-7.649 l 0,-34.636 c 0,-4.235 2.829,-7.645 6.34,-7.645 z" /></g><text
       id="text3112"
       transform="scale(1,-1)"
       x="188.81239"
       y="-688.07373"><tspan
         id="tspan3114"
         sodipodi:role="line"
         y="-688.07373"
         x="188.81239 193.18599 195.19238 200.04999 203.21799 207.82919 209.83559 213.02998 215.03639 219.66519 222.4108 227.26839 231.65079 236.5524 241.16359 248.5468 250.55319 255.41078 260.33878 264.96759 267.7132 271.76999 276.53958 281.39719 286.026 290.68118 293.42679 298.0556"
         style="font-size:8.80000019px;font-variant:normal;font-weight:normal;writing-mode:lr-tb;fill:#0000ff;fill-opacity:1;fill-rule:nonzero;stroke:none;font-family:Tahoma;-inkscape-font-specification:Tahoma">Librairie dynamique codée en</tspan></text>
<g
       transform="matrix(1,0,0,-1,0,841.88977)"
       id="g3116"><path
         inkscape:connector-curvature="0"
         id="path3118"
         style="fill:none;stroke:#000000;stroke-width:0.31999999;stroke-linecap:butt;stroke-linejoin:miter;stroke-miterlimit:4;stroke-opacity:1;stroke-dasharray:none"
         d="m 193.168,153.816 -3.707,0 0,-6.398 0.852,0 0,5.641 2.855,0 0,0.757 z m 1.437,0 -0.808,0 0,-4.8 0.808,0 0,4.8 z m 0.055,-5.601 -0.918,0 0,-0.84 0.918,0 0,0.84 z m 4.324,3.187 c -0.004,-0.57 -0.089,-1.004 -0.261,-1.304 -0.176,-0.293 -0.457,-0.442 -0.844,-0.446 -0.219,0.004 -0.441,0.055 -0.668,0.157 -0.227,0.101 -0.434,0.234 -0.613,0.39 l 0,2.75 c 0.203,0.102 0.386,0.172 0.543,0.211 0.156,0.043 0.328,0.067 0.519,0.063 0.41,0.004 0.735,-0.145 0.973,-0.438 0.23,-0.289 0.347,-0.75 0.351,-1.383 z m 0.832,-0.066 c -0.003,0.789 -0.195,1.422 -0.57,1.898 -0.383,0.477 -0.859,0.711 -1.43,0.715 -0.265,-0.004 -0.488,-0.035 -0.668,-0.097 -0.187,-0.063 -0.371,-0.149 -0.55,-0.258 l -0.051,0.222 -0.754,0 0,-6.687 0.805,0 0,2.391 c 0.203,-0.18 0.425,-0.332 0.664,-0.454 0.234,-0.121 0.504,-0.183 0.808,-0.183 0.539,0 0.965,0.219 1.278,0.652 0.308,0.434 0.465,1.035 0.468,1.801 z m 3.383,-1.453 -0.043,0 c -0.062,-0.012 -0.125,-0.024 -0.191,-0.028 -0.07,-0.003 -0.152,-0.003 -0.242,-0.007 -0.223,0.004 -0.442,0.05 -0.653,0.14 -0.218,0.098 -0.422,0.239 -0.609,0.422 l 0,3.406 -0.805,0 0,-4.8 0.805,0 0,0.714 c 0.293,-0.257 0.551,-0.441 0.773,-0.55 0.215,-0.106 0.43,-0.16 0.637,-0.164 0.082,0.004 0.145,0.004 0.188,0.007 0.039,0.008 0.086,0.016 0.14,0.02 l 0,0.84 z m 3.317,2.754 0,-1.336 c -0.196,0.023 -0.438,0.047 -0.731,0.074 -0.293,0.031 -0.527,0.074 -0.707,0.125 -0.219,0.07 -0.398,0.172 -0.535,0.305 -0.145,0.14 -0.215,0.328 -0.211,0.566 -0.004,0.277 0.074,0.484 0.231,0.625 0.156,0.141 0.382,0.211 0.679,0.211 0.254,0 0.485,-0.055 0.692,-0.164 0.207,-0.109 0.398,-0.242 0.582,-0.406 z m 0,0.668 c -0.071,0.054 -0.157,0.121 -0.266,0.207 -0.109,0.086 -0.219,0.156 -0.32,0.207 -0.149,0.074 -0.285,0.129 -0.414,0.168 -0.137,0.039 -0.325,0.058 -0.559,0.062 -0.203,-0.004 -0.391,-0.043 -0.566,-0.113 -0.18,-0.074 -0.336,-0.176 -0.465,-0.313 -0.133,-0.128 -0.235,-0.289 -0.313,-0.484 -0.078,-0.191 -0.117,-0.394 -0.113,-0.613 -0.004,-0.328 0.066,-0.613 0.211,-0.848 0.137,-0.234 0.359,-0.418 0.664,-0.558 0.27,-0.118 0.586,-0.204 0.953,-0.254 0.363,-0.047 0.758,-0.082 1.188,-0.11 l 0,-0.152 c -0.004,-0.188 -0.032,-0.34 -0.086,-0.457 -0.059,-0.113 -0.141,-0.203 -0.242,-0.27 -0.106,-0.062 -0.231,-0.105 -0.379,-0.129 -0.153,-0.019 -0.305,-0.031 -0.457,-0.035 -0.192,0.004 -0.411,0.032 -0.661,0.086 -0.25,0.059 -0.503,0.141 -0.753,0.242 l -0.047,0 0,-0.82 c 0.144,-0.039 0.359,-0.086 0.64,-0.141 0.278,-0.046 0.551,-0.074 0.824,-0.078 0.329,0.004 0.606,0.032 0.833,0.078 0.222,0.055 0.429,0.145 0.613,0.278 0.172,0.133 0.301,0.305 0.39,0.512 0.082,0.21 0.125,0.464 0.129,0.765 l 0,3.281 -0.804,0 0,-0.511 z m 2.769,0.511 -0.808,0 0,-4.8 0.808,0 0,4.8 z m 0.055,-5.601 -0.918,0 0,-0.84 0.918,0 0,0.84 z m 3.672,1.668 -0.043,0 c -0.063,-0.012 -0.125,-0.024 -0.192,-0.028 -0.07,-0.003 -0.152,-0.003 -0.242,-0.007 -0.222,0.004 -0.441,0.05 -0.652,0.14 -0.219,0.098 -0.422,0.239 -0.61,0.422 l 0,3.406 -0.804,0 0,-4.8 0.804,0 0,0.714 c 0.293,-0.257 0.551,-0.441 0.774,-0.55 0.215,-0.106 0.43,-0.16 0.637,-0.164 0.082,0.004 0.144,0.004 0.187,0.007 0.039,0.008 0.086,0.016 0.141,0.02 l 0,0.84 z m 1.461,3.933 -0.809,0 0,-4.8 0.809,0 0,4.8 z m 0.054,-5.601 -0.918,0 0,-0.84 0.918,0 0,0.84 z m 3.215,5.715 c -0.769,-0.004 -1.363,-0.215 -1.781,-0.645 -0.426,-0.43 -0.637,-1.043 -0.633,-1.84 -0.004,-0.781 0.203,-1.402 0.613,-1.867 0.411,-0.461 0.946,-0.695 1.61,-0.695 0.293,0 0.554,0.043 0.789,0.129 0.226,0.086 0.43,0.222 0.601,0.406 0.172,0.184 0.301,0.406 0.395,0.672 0.086,0.265 0.133,0.59 0.137,0.973 l 0,0.437 -3.325,0 c -0.003,0.563 0.137,0.988 0.422,1.281 0.278,0.297 0.668,0.446 1.164,0.442 0.176,0.004 0.348,-0.016 0.52,-0.059 0.168,-0.039 0.324,-0.094 0.465,-0.156 0.144,-0.063 0.265,-0.125 0.367,-0.188 0.098,-0.062 0.18,-0.121 0.25,-0.175 l 0.047,0 0,0.878 c -0.098,0.04 -0.215,0.086 -0.352,0.141 -0.144,0.055 -0.269,0.098 -0.379,0.129 -0.16,0.043 -0.3,0.074 -0.425,0.102 -0.129,0.019 -0.293,0.031 -0.485,0.035 z m 0.946,-3.047 c -0.008,-0.215 -0.036,-0.403 -0.079,-0.563 -0.046,-0.156 -0.109,-0.289 -0.195,-0.402 -0.098,-0.117 -0.223,-0.211 -0.367,-0.273 -0.149,-0.063 -0.328,-0.094 -0.543,-0.094 -0.219,0 -0.402,0.035 -0.551,0.097 -0.152,0.067 -0.289,0.157 -0.41,0.278 -0.121,0.129 -0.211,0.269 -0.273,0.422 -0.063,0.156 -0.106,0.336 -0.122,0.535 l 2.54,0 z m 8.058,2.933 -0.808,0 0,-0.488 c -0.129,0.11 -0.239,0.195 -0.329,0.262 -0.093,0.07 -0.199,0.133 -0.32,0.187 -0.117,0.055 -0.238,0.094 -0.359,0.125 -0.125,0.028 -0.27,0.043 -0.43,0.047 -0.266,-0.004 -0.504,-0.054 -0.723,-0.164 -0.222,-0.105 -0.414,-0.265 -0.566,-0.476 -0.16,-0.207 -0.281,-0.469 -0.363,-0.782 -0.09,-0.312 -0.133,-0.668 -0.129,-1.074 -0.004,-0.418 0.051,-0.785 0.16,-1.094 0.105,-0.304 0.258,-0.57 0.453,-0.804 0.172,-0.207 0.383,-0.371 0.633,-0.492 0.25,-0.118 0.508,-0.18 0.781,-0.18 0.234,0 0.445,0.027 0.625,0.082 0.18,0.055 0.367,0.137 0.567,0.246 l 0,-2.082 0.808,0 0,6.687 z m -0.808,-1.168 0,-2.769 c -0.204,-0.094 -0.383,-0.16 -0.54,-0.199 -0.16,-0.039 -0.332,-0.059 -0.519,-0.059 -0.414,0 -0.742,0.156 -0.977,0.469 -0.238,0.312 -0.355,0.762 -0.351,1.348 -0.004,0.562 0.086,0.996 0.269,1.292 0.18,0.305 0.473,0.454 0.871,0.45 0.211,0.004 0.422,-0.043 0.637,-0.145 0.215,-0.094 0.418,-0.222 0.61,-0.387 z m 5.746,-3.632 -2.582,6.57 -0.864,0 0.86,-2 -1.743,-4.57 0.872,0 1.308,3.554 1.309,-3.554 0.84,0 z m 4.382,4.8 -0.804,0 0,-2.734 c 0,-0.215 -0.012,-0.418 -0.035,-0.613 -0.024,-0.188 -0.067,-0.344 -0.122,-0.461 -0.07,-0.117 -0.16,-0.203 -0.273,-0.266 -0.121,-0.054 -0.281,-0.086 -0.484,-0.09 -0.203,0.004 -0.41,0.059 -0.621,0.164 -0.211,0.11 -0.422,0.25 -0.625,0.418 l 0,3.582 -0.805,0 0,-4.8 0.805,0 0,0.535 c 0.238,-0.215 0.476,-0.379 0.714,-0.496 0.231,-0.114 0.481,-0.172 0.743,-0.172 0.472,0 0.839,0.156 1.109,0.469 0.262,0.312 0.395,0.761 0.398,1.347 l 0,3.117 z m 3.829,-1.179 0,-1.336 c -0.196,0.023 -0.438,0.047 -0.731,0.074 -0.293,0.031 -0.527,0.074 -0.707,0.125 -0.219,0.07 -0.398,0.172 -0.535,0.305 -0.145,0.14 -0.215,0.328 -0.211,0.566 -0.004,0.277 0.074,0.484 0.23,0.625 0.157,0.141 0.383,0.211 0.68,0.211 0.254,0 0.484,-0.055 0.692,-0.164 0.207,-0.109 0.398,-0.242 0.582,-0.406 z m 0,0.668 c -0.071,0.054 -0.157,0.121 -0.266,0.207 -0.109,0.086 -0.219,0.156 -0.32,0.207 -0.149,0.074 -0.286,0.129 -0.414,0.168 -0.137,0.039 -0.325,0.058 -0.559,0.062 -0.203,-0.004 -0.391,-0.043 -0.566,-0.113 -0.18,-0.074 -0.336,-0.176 -0.465,-0.313 -0.133,-0.128 -0.235,-0.289 -0.313,-0.484 -0.078,-0.191 -0.117,-0.394 -0.113,-0.613 -0.004,-0.328 0.066,-0.613 0.211,-0.848 0.137,-0.234 0.359,-0.418 0.664,-0.558 0.269,-0.118 0.586,-0.204 0.953,-0.254 0.363,-0.047 0.758,-0.082 1.188,-0.11 l 0,-0.152 c -0.004,-0.188 -0.032,-0.34 -0.086,-0.457 -0.059,-0.113 -0.141,-0.203 -0.243,-0.27 -0.105,-0.062 -0.23,-0.105 -0.378,-0.129 -0.153,-0.019 -0.305,-0.031 -0.458,-0.035 -0.191,0.004 -0.41,0.032 -0.66,0.086 -0.25,0.059 -0.504,0.141 -0.754,0.242 l -0.046,0 0,-0.82 c 0.144,-0.039 0.359,-0.086 0.64,-0.141 0.278,-0.046 0.551,-0.074 0.824,-0.078 0.329,0.004 0.606,0.032 0.832,0.078 0.223,0.055 0.43,0.145 0.614,0.278 0.172,0.133 0.3,0.305 0.39,0.512 0.082,0.21 0.125,0.464 0.129,0.765 l 0,3.281 -0.804,0 0,-0.511 z m 7.386,0.511 0,-2.777 c -0.004,-0.219 -0.011,-0.422 -0.027,-0.609 -0.02,-0.188 -0.055,-0.332 -0.106,-0.442 -0.058,-0.109 -0.14,-0.195 -0.246,-0.254 -0.105,-0.05 -0.246,-0.078 -0.425,-0.082 -0.168,0.004 -0.348,0.055 -0.536,0.153 -0.191,0.105 -0.39,0.254 -0.593,0.441 0,0.055 0.004,0.113 0.011,0.176 0,0.07 0.004,0.148 0.008,0.234 l 0,3.16 -0.808,0 0,-2.777 c -0.004,-0.219 -0.012,-0.422 -0.028,-0.609 -0.015,-0.188 -0.051,-0.332 -0.105,-0.442 -0.059,-0.109 -0.141,-0.195 -0.246,-0.254 -0.106,-0.05 -0.25,-0.078 -0.43,-0.082 -0.176,0.004 -0.359,0.059 -0.551,0.164 -0.191,0.114 -0.379,0.254 -0.558,0.418 l 0,3.582 -0.805,0 0,-4.8 0.805,0 0,0.535 c 0.211,-0.211 0.422,-0.375 0.629,-0.492 0.207,-0.118 0.437,-0.176 0.687,-0.176 0.281,0 0.531,0.066 0.754,0.195 0.215,0.129 0.383,0.34 0.5,0.637 0.242,-0.274 0.48,-0.481 0.715,-0.621 0.23,-0.141 0.48,-0.211 0.754,-0.211 0.207,0 0.394,0.035 0.562,0.097 0.168,0.071 0.317,0.172 0.446,0.313 0.125,0.148 0.222,0.332 0.296,0.547 0.067,0.219 0.102,0.492 0.106,0.816 l 0,3.16 -0.809,0 z m 2.77,0 -0.809,0 0,-4.8 0.809,0 0,4.8 z m 0.054,-5.601 -0.917,0 0,-0.84 0.917,0 0,0.84 z m 4.829,7.371 -0.809,0 0,-2.293 c -0.238,0.219 -0.469,0.375 -0.687,0.469 -0.227,0.101 -0.473,0.148 -0.747,0.148 -0.543,0 -0.976,-0.215 -1.3,-0.652 -0.325,-0.434 -0.489,-1.043 -0.485,-1.824 -0.004,-0.411 0.055,-0.774 0.168,-1.094 0.114,-0.313 0.262,-0.578 0.449,-0.797 0.176,-0.207 0.387,-0.371 0.637,-0.488 0.242,-0.114 0.5,-0.172 0.77,-0.172 0.246,0 0.461,0.031 0.64,0.086 0.18,0.062 0.364,0.144 0.555,0.254 l 0.051,-0.207 0.758,0 0,6.57 z m -0.809,-2.973 0,-2.734 c -0.207,-0.098 -0.391,-0.164 -0.547,-0.207 -0.164,-0.039 -0.336,-0.063 -0.515,-0.063 -0.43,0 -0.754,0.157 -0.981,0.461 -0.23,0.309 -0.348,0.75 -0.344,1.325 -0.004,0.562 0.09,0.992 0.274,1.293 0.183,0.304 0.468,0.457 0.859,0.453 0.223,0.004 0.442,-0.047 0.66,-0.145 0.211,-0.098 0.41,-0.223 0.594,-0.383 z m 5.715,1.203 -0.809,0 0,-0.531 c -0.25,0.219 -0.488,0.383 -0.711,0.496 -0.226,0.11 -0.476,0.164 -0.746,0.168 -0.211,-0.004 -0.406,-0.039 -0.59,-0.105 -0.187,-0.067 -0.347,-0.172 -0.484,-0.324 -0.141,-0.145 -0.25,-0.332 -0.32,-0.563 -0.078,-0.223 -0.114,-0.496 -0.114,-0.824 l 0,-3.117 0.809,0 0,2.734 c 0,0.258 0.008,0.469 0.027,0.637 0.016,0.168 0.059,0.316 0.125,0.437 0.067,0.125 0.157,0.215 0.27,0.27 0.109,0.062 0.269,0.09 0.488,0.086 0.195,0.004 0.406,-0.051 0.629,-0.168 0.223,-0.11 0.43,-0.246 0.617,-0.41 l 0,-3.586 0.809,0 0,4.8 z m 3.262,0.114 c -0.77,-0.004 -1.364,-0.215 -1.782,-0.645 -0.425,-0.43 -0.636,-1.043 -0.632,-1.84 -0.004,-0.781 0.203,-1.402 0.613,-1.867 0.41,-0.461 0.945,-0.695 1.609,-0.695 0.293,0 0.555,0.043 0.789,0.129 0.227,0.086 0.43,0.222 0.602,0.406 0.172,0.184 0.301,0.406 0.394,0.672 0.086,0.265 0.133,0.59 0.137,0.973 l 0,0.437 -3.324,0 c -0.004,0.563 0.137,0.988 0.422,1.281 0.277,0.297 0.668,0.446 1.164,0.442 0.176,0.004 0.347,-0.016 0.519,-0.059 0.168,-0.039 0.325,-0.094 0.465,-0.156 0.145,-0.063 0.266,-0.125 0.367,-0.188 0.098,-0.062 0.18,-0.121 0.25,-0.175 l 0.047,0 0,0.878 c -0.097,0.04 -0.215,0.086 -0.351,0.141 -0.145,0.055 -0.27,0.098 -0.379,0.129 -0.16,0.043 -0.301,0.074 -0.426,0.102 -0.129,0.019 -0.293,0.031 -0.484,0.035 z m 0.945,-3.047 c -0.008,-0.215 -0.035,-0.403 -0.078,-0.563 -0.047,-0.156 -0.11,-0.289 -0.196,-0.402 -0.097,-0.117 -0.222,-0.211 -0.367,-0.273 -0.148,-0.063 -0.328,-0.094 -0.543,-0.094 -0.218,0 -0.402,0.035 -0.55,0.097 -0.153,0.067 -0.29,0.157 -0.411,0.278 -0.121,0.129 -0.211,0.269 -0.273,0.422 -0.063,0.156 -0.106,0.336 -0.121,0.535 l 2.539,0 z m 6.269,3.043 c -0.332,-0.004 -0.632,-0.051 -0.906,-0.153 -0.277,-0.101 -0.515,-0.257 -0.711,-0.464 -0.203,-0.204 -0.355,-0.461 -0.461,-0.778 -0.109,-0.312 -0.164,-0.683 -0.16,-1.109 -0.004,-0.418 0.055,-0.781 0.168,-1.09 0.113,-0.305 0.262,-0.562 0.453,-0.773 0.188,-0.207 0.426,-0.368 0.707,-0.481 0.282,-0.113 0.582,-0.172 0.91,-0.172 0.258,0 0.512,0.039 0.762,0.114 0.242,0.074 0.461,0.16 0.656,0.253 l 0,0.907 -0.046,0 c -0.063,-0.043 -0.137,-0.098 -0.223,-0.164 -0.094,-0.063 -0.203,-0.129 -0.328,-0.196 -0.117,-0.054 -0.246,-0.101 -0.395,-0.148 -0.152,-0.039 -0.301,-0.063 -0.437,-0.067 -0.422,0.004 -0.758,0.165 -1.012,0.477 -0.254,0.32 -0.379,0.766 -0.379,1.34 0,0.57 0.121,1.012 0.367,1.328 0.246,0.316 0.586,0.477 1.024,0.473 0.258,0.004 0.508,-0.051 0.75,-0.16 0.234,-0.106 0.445,-0.247 0.633,-0.422 l 0.046,0 0,0.906 c -0.086,0.039 -0.183,0.086 -0.3,0.137 -0.121,0.054 -0.231,0.093 -0.329,0.117 -0.136,0.039 -0.261,0.066 -0.367,0.09 -0.113,0.019 -0.254,0.031 -0.422,0.035 z m 6.094,-2.508 c -0.004,0.812 -0.199,1.434 -0.586,1.871 -0.39,0.438 -0.906,0.656 -1.551,0.66 -0.671,-0.004 -1.199,-0.226 -1.578,-0.679 -0.382,-0.454 -0.57,-1.071 -0.57,-1.852 0,-0.797 0.195,-1.422 0.59,-1.867 0.39,-0.446 0.91,-0.668 1.558,-0.668 0.645,0 1.161,0.222 1.551,0.664 0.387,0.445 0.582,1.07 0.586,1.871 z m -0.832,0 c -0.004,-0.617 -0.117,-1.082 -0.34,-1.387 -0.23,-0.301 -0.55,-0.449 -0.965,-0.453 -0.425,0.004 -0.75,0.152 -0.976,0.453 -0.227,0.305 -0.34,0.77 -0.34,1.387 0,0.605 0.113,1.062 0.34,1.371 0.226,0.313 0.551,0.465 0.976,0.465 0.411,0 0.731,-0.152 0.961,-0.457 0.227,-0.305 0.34,-0.762 0.344,-1.379 z m 5.36,2.398 -0.809,0 0,-0.488 c -0.129,0.11 -0.238,0.195 -0.328,0.262 -0.094,0.07 -0.199,0.133 -0.321,0.187 -0.117,0.055 -0.238,0.094 -0.359,0.125 -0.125,0.028 -0.269,0.043 -0.43,0.047 -0.265,-0.004 -0.503,-0.054 -0.722,-0.164 -0.223,-0.105 -0.414,-0.265 -0.567,-0.476 -0.16,-0.207 -0.281,-0.469 -0.363,-0.782 -0.09,-0.312 -0.133,-0.668 -0.129,-1.074 -0.004,-0.418 0.051,-0.785 0.16,-1.094 0.106,-0.304 0.258,-0.57 0.453,-0.804 0.172,-0.207 0.383,-0.371 0.633,-0.492 0.25,-0.118 0.508,-0.18 0.782,-0.18 0.234,0 0.445,0.027 0.625,0.082 0.179,0.055 0.367,0.137 0.566,0.246 l 0,-2.082 0.809,0 0,6.687 z m -0.809,-1.168 0,-2.769 c -0.203,-0.094 -0.383,-0.16 -0.539,-0.199 -0.16,-0.039 -0.332,-0.059 -0.52,-0.059 -0.414,0 -0.742,0.156 -0.976,0.469 -0.239,0.312 -0.356,0.762 -0.352,1.348 -0.004,0.562 0.086,0.996 0.27,1.292 0.179,0.305 0.472,0.454 0.871,0.45 0.211,0.004 0.422,-0.043 0.637,-0.145 0.214,-0.094 0.418,-0.222 0.609,-0.387 z m 4.062,1.282 c -0.769,-0.004 -1.363,-0.215 -1.781,-0.645 -0.426,-0.43 -0.637,-1.043 -0.633,-1.84 -0.004,-0.781 0.203,-1.402 0.614,-1.867 0.41,-0.461 0.945,-0.695 1.609,-0.695 0.293,0 0.555,0.043 0.789,0.129 0.227,0.086 0.43,0.222 0.602,0.406 0.172,0.184 0.3,0.406 0.394,0.672 0.086,0.265 0.133,0.59 0.137,0.973 l 0,0.437 -3.324,0 c -0.004,0.563 0.136,0.988 0.422,1.281 0.277,0.297 0.668,0.446 1.164,0.442 0.175,0.004 0.347,-0.016 0.519,-0.059 0.168,-0.039 0.324,-0.094 0.465,-0.156 0.145,-0.063 0.266,-0.125 0.367,-0.188 0.098,-0.062 0.18,-0.121 0.25,-0.175 l 0.047,0 0,0.878 c -0.098,0.04 -0.215,0.086 -0.352,0.141 -0.144,0.055 -0.269,0.098 -0.378,0.129 -0.161,0.043 -0.301,0.074 -0.426,0.102 -0.129,0.019 -0.293,0.031 -0.485,0.035 z m 0.946,-3.047 c -0.008,-0.215 -0.035,-0.403 -0.078,-0.563 -0.047,-0.156 -0.11,-0.289 -0.196,-0.402 -0.097,-0.117 -0.222,-0.211 -0.367,-0.273 -0.148,-0.063 -0.328,-0.094 -0.543,-0.094 -0.219,0 -0.402,0.035 -0.551,0.097 -0.152,0.067 -0.289,0.157 -0.41,0.278 -0.121,0.129 -0.211,0.269 -0.273,0.422 -0.063,0.156 -0.106,0.336 -0.121,0.535 l 2.539,0 z m 0.207,-4.27 -1.172,1.61 -0.641,0 0.77,-1.61 1.043,0 z m 3.488,7.317 c -0.769,-0.004 -1.363,-0.215 -1.781,-0.645 -0.426,-0.43 -0.637,-1.043 -0.633,-1.84 -0.004,-0.781 0.203,-1.402 0.613,-1.867 0.41,-0.461 0.946,-0.695 1.61,-0.695 0.293,0 0.554,0.043 0.789,0.129 0.226,0.086 0.429,0.222 0.601,0.406 0.172,0.184 0.301,0.406 0.395,0.672 0.086,0.265 0.133,0.59 0.137,0.973 l 0,0.437 -3.325,0 c -0.004,0.563 0.137,0.988 0.422,1.281 0.278,0.297 0.668,0.446 1.164,0.442 0.176,0.004 0.348,-0.016 0.52,-0.059 0.168,-0.039 0.324,-0.094 0.465,-0.156 0.144,-0.063 0.265,-0.125 0.367,-0.188 0.097,-0.062 0.179,-0.121 0.25,-0.175 l 0.047,0 0,0.878 c -0.098,0.04 -0.215,0.086 -0.352,0.141 -0.144,0.055 -0.269,0.098 -0.379,0.129 -0.16,0.043 -0.301,0.074 -0.426,0.102 -0.128,0.019 -0.293,0.031 -0.484,0.035 z m 0.945,-3.047 c -0.007,-0.215 -0.035,-0.403 -0.078,-0.563 -0.047,-0.156 -0.109,-0.289 -0.195,-0.402 -0.098,-0.117 -0.223,-0.211 -0.367,-0.273 -0.149,-0.063 -0.328,-0.094 -0.543,-0.094 -0.219,0 -0.403,0.035 -0.551,0.097 -0.152,0.067 -0.289,0.157 -0.41,0.278 -0.121,0.129 -0.211,0.269 -0.274,0.422 -0.062,0.156 -0.105,0.336 -0.121,0.535 l 2.539,0 z m 6.446,3.047 c -0.77,-0.004 -1.364,-0.215 -1.782,-0.645 -0.425,-0.43 -0.636,-1.043 -0.632,-1.84 -0.004,-0.781 0.203,-1.402 0.613,-1.867 0.41,-0.461 0.945,-0.695 1.609,-0.695 0.293,0 0.555,0.043 0.789,0.129 0.227,0.086 0.43,0.222 0.602,0.406 0.172,0.184 0.301,0.406 0.394,0.672 0.086,0.265 0.133,0.59 0.137,0.973 l 0,0.437 -3.324,0 c -0.004,0.563 0.137,0.988 0.422,1.281 0.277,0.297 0.668,0.446 1.164,0.442 0.176,0.004 0.348,-0.016 0.519,-0.059 0.168,-0.039 0.325,-0.094 0.465,-0.156 0.145,-0.063 0.266,-0.125 0.367,-0.188 0.098,-0.062 0.18,-0.121 0.25,-0.175 l 0.047,0 0,0.878 c -0.097,0.04 -0.215,0.086 -0.351,0.141 -0.145,0.055 -0.27,0.098 -0.379,0.129 -0.16,0.043 -0.301,0.074 -0.426,0.102 -0.129,0.019 -0.293,0.031 -0.484,0.035 z m 0.945,-3.047 c -0.008,-0.215 -0.035,-0.403 -0.078,-0.563 -0.047,-0.156 -0.11,-0.289 -0.195,-0.402 -0.098,-0.117 -0.223,-0.211 -0.368,-0.273 -0.148,-0.063 -0.328,-0.094 -0.543,-0.094 -0.218,0 -0.402,0.035 -0.55,0.097 -0.153,0.067 -0.289,0.157 -0.411,0.278 -0.121,0.129 -0.21,0.269 -0.273,0.422 -0.062,0.156 -0.105,0.336 -0.121,0.535 l 2.539,0 z m 5.383,2.933 -0.805,0 0,-2.734 c 0,-0.215 -0.012,-0.418 -0.035,-0.613 -0.023,-0.188 -0.066,-0.344 -0.121,-0.461 -0.07,-0.117 -0.16,-0.203 -0.274,-0.266 -0.121,-0.054 -0.281,-0.086 -0.484,-0.09 -0.203,0.004 -0.41,0.059 -0.621,0.164 -0.211,0.11 -0.422,0.25 -0.625,0.418 l 0,3.582 -0.805,0 0,-4.8 0.805,0 0,0.535 c 0.238,-0.215 0.477,-0.379 0.715,-0.496 0.23,-0.114 0.48,-0.172 0.742,-0.172 0.473,0 0.84,0.156 1.109,0.469 0.262,0.312 0.395,0.761 0.399,1.347 l 0,3.117 z" /></g><text
       id="text3120"
       transform="scale(1,-1)"
       x="218.50378"
       y="-677.07373"><tspan
         id="tspan3122"
         sodipodi:role="line"
         y="-677.07373"
         x="218.50378 223.78378 230.1814 236.60539 239.351 242.29019 246.91899 254.30219 259.15979 261.1662 265.7774 268.71658"
         style="font-size:8.80000019px;font-variant:normal;font-weight:normal;writing-mode:lr-tb;fill:#0000ff;fill-opacity:1;fill-rule:nonzero;stroke:none;font-family:Tahoma;-inkscape-font-specification:Tahoma">C++ templaté</tspan></text>
<g
       transform="matrix(1,0,0,-1,0,841.88977)"
       id="g3124"><path
         inkscape:connector-curvature="0"
         id="path3126"
         style="fill:none;stroke:#000000;stroke-width:0.31999999;stroke-linecap:butt;stroke-linejoin:miter;stroke-miterlimit:4;stroke-opacity:1;stroke-dasharray:none"
         d="m 221.652,164.934 c -0.422,0 -0.804,-0.071 -1.152,-0.211 -0.355,-0.141 -0.66,-0.348 -0.91,-0.629 -0.258,-0.274 -0.453,-0.621 -0.594,-1.039 -0.141,-0.41 -0.211,-0.887 -0.207,-1.43 -0.004,-0.535 0.063,-1.004 0.203,-1.402 0.133,-0.399 0.332,-0.743 0.594,-1.039 0.254,-0.282 0.555,-0.5 0.906,-0.657 0.348,-0.148 0.742,-0.226 1.176,-0.226 0.211,0 0.41,0.019 0.602,0.051 0.183,0.035 0.359,0.074 0.523,0.117 0.137,0.047 0.277,0.101 0.422,0.164 0.144,0.066 0.285,0.137 0.43,0.211 l 0,1.027 -0.071,0 c -0.078,-0.066 -0.172,-0.148 -0.289,-0.246 -0.117,-0.098 -0.262,-0.195 -0.43,-0.293 -0.164,-0.086 -0.339,-0.156 -0.531,-0.219 -0.195,-0.054 -0.418,-0.086 -0.668,-0.086 -0.273,0 -0.531,0.059 -0.773,0.168 -0.242,0.118 -0.457,0.282 -0.637,0.496 -0.187,0.219 -0.328,0.493 -0.426,0.821 -0.101,0.332 -0.152,0.703 -0.148,1.113 -0.004,0.441 0.051,0.82 0.16,1.133 0.106,0.32 0.25,0.586 0.434,0.801 0.175,0.214 0.382,0.375 0.625,0.48 0.238,0.109 0.496,0.164 0.765,0.16 0.246,0.004 0.473,-0.027 0.684,-0.09 0.207,-0.058 0.394,-0.136 0.558,-0.23 0.157,-0.086 0.293,-0.176 0.411,-0.27 0.113,-0.093 0.203,-0.171 0.269,-0.242 l 0.067,0 0,1.016 c -0.145,0.066 -0.278,0.129 -0.399,0.187 -0.129,0.063 -0.277,0.121 -0.453,0.176 -0.188,0.063 -0.363,0.109 -0.52,0.141 -0.164,0.031 -0.371,0.047 -0.621,0.047 z m 7.871,-2.575 -2.168,0 0,2.168 -0.714,0 0,-2.168 -2.168,0 0,-0.687 2.168,0 0,-2.172 0.714,0 0,2.172 2.168,0 0,0.687 z m 6.411,0 -2.168,0 0,2.168 -0.715,0 0,-2.168 -2.168,0 0,-0.687 2.168,0 0,-2.172 0.715,0 0,2.172 2.168,0 0,0.687 z m 5.472,2.551 c -0.445,0 -0.789,-0.125 -1.031,-0.375 -0.25,-0.25 -0.371,-0.644 -0.367,-1.187 l 0,-2.66 -0.547,0 0,-0.672 0.547,0 0,-1.379 0.808,0 0,1.379 1.485,0 0,0.672 -1.485,0 0,2.281 c -0.003,0.246 0,0.433 0.012,0.562 0.004,0.137 0.035,0.258 0.098,0.371 0.047,0.102 0.129,0.18 0.238,0.227 0.109,0.055 0.254,0.078 0.441,0.074 0.129,0.004 0.258,-0.015 0.383,-0.058 0.121,-0.036 0.211,-0.067 0.266,-0.098 l 0.047,0 0,0.726 c -0.153,0.047 -0.309,0.079 -0.461,0.102 -0.16,0.023 -0.305,0.035 -0.434,0.035 z m 3.571,0.02 c -0.77,-0.004 -1.364,-0.215 -1.782,-0.645 -0.425,-0.43 -0.636,-1.043 -0.632,-1.84 -0.004,-0.781 0.203,-1.402 0.613,-1.867 0.41,-0.461 0.945,-0.695 1.609,-0.695 0.293,0 0.555,0.043 0.789,0.129 0.227,0.086 0.43,0.222 0.602,0.406 0.172,0.184 0.301,0.406 0.394,0.672 0.086,0.265 0.133,0.59 0.137,0.973 l 0,0.437 -3.324,0 c -0.004,0.563 0.137,0.988 0.422,1.281 0.277,0.297 0.668,0.446 1.164,0.442 0.176,0.004 0.347,-0.016 0.519,-0.059 0.168,-0.039 0.325,-0.094 0.465,-0.156 0.145,-0.063 0.266,-0.125 0.367,-0.188 0.098,-0.062 0.18,-0.121 0.25,-0.175 l 0.047,0 0,0.878 c -0.097,0.04 -0.215,0.086 -0.351,0.141 -0.145,0.055 -0.27,0.098 -0.379,0.129 -0.16,0.043 -0.301,0.074 -0.426,0.102 -0.129,0.019 -0.293,0.031 -0.484,0.035 z m 0.945,-3.047 c -0.008,-0.215 -0.035,-0.403 -0.078,-0.563 -0.047,-0.156 -0.11,-0.289 -0.196,-0.402 -0.097,-0.117 -0.222,-0.211 -0.367,-0.273 -0.148,-0.063 -0.328,-0.094 -0.543,-0.094 -0.218,0 -0.402,0.035 -0.55,0.097 -0.153,0.067 -0.29,0.157 -0.411,0.278 -0.121,0.129 -0.211,0.269 -0.273,0.422 -0.063,0.156 -0.106,0.336 -0.121,0.535 l 2.539,0 z m 7.058,2.933 0,-2.777 c -0.003,-0.219 -0.011,-0.422 -0.027,-0.609 -0.019,-0.188 -0.055,-0.332 -0.105,-0.442 -0.059,-0.109 -0.141,-0.195 -0.246,-0.254 -0.106,-0.05 -0.247,-0.078 -0.426,-0.082 -0.168,0.004 -0.348,0.055 -0.535,0.153 -0.192,0.105 -0.391,0.254 -0.594,0.441 0,0.055 0.004,0.113 0.012,0.176 0,0.07 0.004,0.148 0.007,0.234 l 0,3.16 -0.808,0 0,-2.777 c -0.004,-0.219 -0.012,-0.422 -0.028,-0.609 -0.015,-0.188 -0.05,-0.332 -0.105,-0.442 -0.059,-0.109 -0.141,-0.195 -0.246,-0.254 -0.106,-0.05 -0.25,-0.078 -0.43,-0.082 -0.176,0.004 -0.359,0.059 -0.551,0.164 -0.191,0.114 -0.378,0.254 -0.558,0.418 l 0,3.582 -0.805,0 0,-4.8 0.805,0 0,0.535 c 0.211,-0.211 0.422,-0.375 0.629,-0.492 0.207,-0.118 0.437,-0.176 0.687,-0.176 0.282,0 0.532,0.066 0.754,0.195 0.215,0.129 0.383,0.34 0.5,0.637 0.242,-0.274 0.481,-0.481 0.715,-0.621 0.23,-0.141 0.48,-0.211 0.754,-0.211 0.207,0 0.394,0.035 0.562,0.097 0.168,0.071 0.317,0.172 0.446,0.313 0.125,0.148 0.222,0.332 0.297,0.547 0.066,0.219 0.101,0.492 0.105,0.816 l 0,3.16 -0.809,0 z m 5.969,-2.527 c -0.004,0.805 -0.195,1.441 -0.574,1.91 -0.383,0.477 -0.867,0.711 -1.449,0.711 -0.242,0 -0.453,-0.027 -0.633,-0.082 -0.188,-0.055 -0.375,-0.137 -0.563,-0.254 l 0,2.012 -0.804,0 0,-6.57 0.804,0 0,0.504 c 0.196,-0.176 0.418,-0.329 0.668,-0.454 0.243,-0.121 0.512,-0.183 0.805,-0.183 0.547,0 0.977,0.219 1.285,0.656 0.305,0.438 0.457,1.024 0.461,1.75 z m -0.832,0.09 c -0.004,-0.547 -0.09,-0.969 -0.262,-1.274 -0.175,-0.296 -0.46,-0.449 -0.851,-0.453 -0.231,0.004 -0.453,0.055 -0.664,0.153 -0.219,0.105 -0.422,0.238 -0.61,0.394 l 0,2.719 c 0.211,0.109 0.395,0.18 0.543,0.211 0.149,0.039 0.321,0.055 0.52,0.055 0.418,0 0.742,-0.153 0.977,-0.457 0.226,-0.305 0.343,-0.754 0.347,-1.348 z m 2.496,2.437 -0.808,0 0,-6.687 0.808,0 0,6.687 z m 3.867,-1.179 0,-1.336 c -0.195,0.023 -0.437,0.047 -0.73,0.074 -0.293,0.031 -0.527,0.074 -0.707,0.125 -0.219,0.07 -0.398,0.172 -0.535,0.305 -0.145,0.14 -0.215,0.328 -0.211,0.566 -0.004,0.277 0.074,0.484 0.23,0.625 0.157,0.141 0.383,0.211 0.68,0.211 0.254,0 0.484,-0.055 0.691,-0.164 0.207,-0.109 0.399,-0.242 0.582,-0.406 z m 0,0.668 c -0.07,0.054 -0.156,0.121 -0.265,0.207 -0.11,0.086 -0.219,0.156 -0.32,0.207 -0.149,0.074 -0.286,0.129 -0.415,0.168 -0.136,0.039 -0.324,0.058 -0.558,0.062 -0.203,-0.004 -0.391,-0.043 -0.567,-0.113 -0.179,-0.074 -0.335,-0.176 -0.464,-0.313 -0.133,-0.128 -0.235,-0.289 -0.313,-0.484 -0.078,-0.191 -0.117,-0.394 -0.113,-0.613 -0.004,-0.328 0.066,-0.613 0.211,-0.848 0.137,-0.234 0.359,-0.418 0.664,-0.558 0.269,-0.118 0.586,-0.204 0.953,-0.254 0.363,-0.047 0.758,-0.082 1.187,-0.11 l 0,-0.152 c -0.003,-0.188 -0.031,-0.34 -0.085,-0.457 -0.059,-0.113 -0.141,-0.203 -0.243,-0.27 -0.105,-0.062 -0.23,-0.105 -0.379,-0.129 -0.152,-0.019 -0.304,-0.031 -0.457,-0.035 -0.191,0.004 -0.41,0.032 -0.66,0.086 -0.25,0.059 -0.504,0.141 -0.754,0.242 l -0.047,0 0,-0.82 c 0.145,-0.039 0.36,-0.086 0.641,-0.141 0.277,-0.046 0.551,-0.074 0.824,-0.078 0.328,0.004 0.606,0.032 0.832,0.078 0.223,0.055 0.43,0.145 0.614,0.278 0.172,0.133 0.3,0.305 0.39,0.512 0.082,0.21 0.125,0.464 0.129,0.765 l 0,3.281 -0.805,0 0,-0.511 z m 3.395,0.605 c -0.445,0 -0.789,-0.125 -1.031,-0.375 -0.25,-0.25 -0.371,-0.644 -0.367,-1.187 l 0,-2.66 -0.547,0 0,-0.672 0.547,0 0,-1.379 0.808,0 0,1.379 1.485,0 0,0.672 -1.485,0 0,2.281 c -0.004,0.246 0,0.433 0.012,0.562 0.004,0.137 0.035,0.258 0.098,0.371 0.046,0.102 0.128,0.18 0.238,0.227 0.109,0.055 0.254,0.078 0.441,0.074 0.129,0.004 0.258,-0.015 0.383,-0.058 0.121,-0.036 0.211,-0.067 0.266,-0.098 l 0.047,0 0,0.726 c -0.153,0.047 -0.309,0.079 -0.461,0.102 -0.161,0.023 -0.305,0.035 -0.434,0.035 z m 3.57,0.02 c -0.769,-0.004 -1.363,-0.215 -1.781,-0.645 -0.426,-0.43 -0.637,-1.043 -0.633,-1.84 -0.004,-0.781 0.203,-1.402 0.614,-1.867 0.41,-0.461 0.945,-0.695 1.609,-0.695 0.293,0 0.555,0.043 0.789,0.129 0.227,0.086 0.43,0.222 0.602,0.406 0.171,0.184 0.3,0.406 0.394,0.672 0.086,0.265 0.133,0.59 0.137,0.973 l 0,0.437 -3.324,0 c -0.004,0.563 0.136,0.988 0.421,1.281 0.278,0.297 0.668,0.446 1.165,0.442 0.175,0.004 0.347,-0.016 0.519,-0.059 0.168,-0.039 0.324,-0.094 0.465,-0.156 0.144,-0.063 0.266,-0.125 0.367,-0.188 0.098,-0.062 0.18,-0.121 0.25,-0.175 l 0.047,0 0,0.878 c -0.098,0.04 -0.215,0.086 -0.352,0.141 -0.144,0.055 -0.269,0.098 -0.379,0.129 -0.16,0.043 -0.3,0.074 -0.425,0.102 -0.129,0.019 -0.293,0.031 -0.485,0.035 z m 0.946,-3.047 c -0.008,-0.215 -0.036,-0.403 -0.078,-0.563 -0.047,-0.156 -0.11,-0.289 -0.196,-0.402 -0.097,-0.117 -0.222,-0.211 -0.367,-0.273 -0.148,-0.063 -0.328,-0.094 -0.543,-0.094 -0.219,0 -0.402,0.035 -0.551,0.097 -0.152,0.067 -0.289,0.157 -0.41,0.278 -0.121,0.129 -0.211,0.269 -0.273,0.422 -0.063,0.156 -0.106,0.336 -0.121,0.535 l 2.539,0 z m 0.207,-4.27 -1.172,1.61 -0.641,0 0.77,-1.61 1.043,0 z" /></g><text
       id="text3128"
       transform="scale(1,-1)"
       x="208.74129"
       y="-666.07373"><tspan
         id="tspan3130"
         sodipodi:role="line"
         y="-666.07373"
         x="208.74129 212.10289 219.48608 224.11488 227.05409 231.66528 234.8597 239.71729 242.88528 247.65489 252.51248 255.70689 260.31808 267.70129 275.0845 279.71329"
         style="font-size:8.80000019px;font-variant:normal;font-weight:normal;writing-mode:lr-tb;fill:#0000ff;fill-opacity:1;fill-rule:nonzero;stroke:none;font-family:Tahoma;-inkscape-font-specification:Tahoma">(méta-programme)</tspan></text>
<g
       transform="matrix(1,0,0,-1,0,841.88977)"
       id="g3132"><path
         inkscape:connector-curvature="0"
         id="path3134"
         style="fill:none;stroke:#000000;stroke-width:0.31999999;stroke-linecap:butt;stroke-linejoin:miter;stroke-miterlimit:4;stroke-opacity:1;stroke-dasharray:none"
         d="m 211.793,177.586 -0.984,0 c -0.5,-0.594 -0.891,-1.219 -1.176,-1.879 -0.285,-0.66 -0.43,-1.441 -0.426,-2.348 -0.004,-0.879 0.137,-1.656 0.422,-2.332 0.281,-0.668 0.676,-1.3 1.18,-1.898 l 0.984,0 0,0.043 c -0.234,0.211 -0.457,0.453 -0.664,0.726 -0.215,0.274 -0.41,0.594 -0.586,0.957 -0.176,0.356 -0.316,0.743 -0.422,1.165 -0.109,0.421 -0.16,0.871 -0.16,1.339 0,0.493 0.051,0.938 0.156,1.344 0.106,0.406 0.246,0.793 0.426,1.16 0.168,0.352 0.363,0.668 0.586,0.953 0.219,0.286 0.441,0.528 0.664,0.727 l 0,0.043 z m 6.348,-1.77 0,-2.777 c -0.004,-0.219 -0.012,-0.422 -0.028,-0.609 -0.019,-0.188 -0.054,-0.332 -0.105,-0.442 -0.059,-0.109 -0.141,-0.195 -0.246,-0.254 -0.106,-0.05 -0.246,-0.078 -0.426,-0.082 -0.168,0.004 -0.348,0.055 -0.535,0.153 -0.192,0.105 -0.391,0.254 -0.594,0.441 0,0.055 0.004,0.113 0.012,0.176 0,0.07 0.004,0.148 0.008,0.234 l 0,3.16 -0.809,0 0,-2.777 c -0.004,-0.219 -0.012,-0.422 -0.027,-0.609 -0.016,-0.188 -0.051,-0.332 -0.106,-0.442 -0.058,-0.109 -0.14,-0.195 -0.246,-0.254 -0.105,-0.05 -0.25,-0.078 -0.43,-0.082 -0.175,0.004 -0.359,0.059 -0.55,0.164 -0.192,0.114 -0.379,0.254 -0.559,0.418 l 0,3.582 -0.805,0 0,-4.8 0.805,0 0,0.535 c 0.211,-0.211 0.422,-0.375 0.629,-0.492 0.207,-0.118 0.437,-0.176 0.687,-0.176 0.282,0 0.532,0.066 0.754,0.195 0.215,0.129 0.383,0.34 0.5,0.637 0.243,-0.274 0.481,-0.481 0.715,-0.621 0.231,-0.141 0.481,-0.211 0.754,-0.211 0.207,0 0.395,0.035 0.563,0.097 0.168,0.071 0.316,0.172 0.445,0.313 0.125,0.148 0.223,0.332 0.297,0.547 0.066,0.219 0.101,0.492 0.105,0.816 l 0,3.16 -0.808,0 z m 4.027,0.114 c -0.77,-0.004 -1.363,-0.215 -1.781,-0.645 -0.426,-0.43 -0.637,-1.043 -0.633,-1.84 -0.004,-0.781 0.203,-1.402 0.613,-1.867 0.41,-0.461 0.946,-0.695 1.61,-0.695 0.293,0 0.554,0.043 0.789,0.129 0.226,0.086 0.429,0.222 0.601,0.406 0.172,0.184 0.301,0.406 0.395,0.672 0.086,0.265 0.133,0.59 0.136,0.973 l 0,0.437 -3.324,0 c -0.004,0.563 0.137,0.988 0.422,1.281 0.277,0.297 0.668,0.446 1.164,0.442 0.176,0.004 0.348,-0.016 0.52,-0.059 0.168,-0.039 0.324,-0.094 0.465,-0.156 0.144,-0.063 0.265,-0.125 0.367,-0.188 0.097,-0.062 0.179,-0.121 0.25,-0.175 l 0.047,0 0,0.878 c -0.098,0.04 -0.215,0.086 -0.352,0.141 -0.144,0.055 -0.269,0.098 -0.379,0.129 -0.16,0.043 -0.301,0.074 -0.426,0.102 -0.129,0.019 -0.293,0.031 -0.484,0.035 z m 0.945,-3.047 c -0.008,-0.215 -0.035,-0.403 -0.078,-0.563 -0.047,-0.156 -0.109,-0.289 -0.195,-0.402 -0.098,-0.117 -0.223,-0.211 -0.367,-0.273 -0.149,-0.063 -0.328,-0.094 -0.543,-0.094 -0.219,0 -0.403,0.035 -0.551,0.097 -0.152,0.067 -0.289,0.157 -0.41,0.278 -0.121,0.129 -0.211,0.269 -0.274,0.422 -0.062,0.156 -0.105,0.336 -0.121,0.535 l 2.539,0 z m 0.207,-4.27 -1.172,1.61 -0.64,0 0.769,-1.61 1.043,0 z m 2.856,7.297 c -0.446,0 -0.789,-0.125 -1.031,-0.375 -0.25,-0.25 -0.372,-0.644 -0.368,-1.187 l 0,-2.66 -0.547,0 0,-0.672 0.547,0 0,-1.379 0.809,0 0,1.379 1.484,0 0,0.672 -1.484,0 0,2.281 c -0.004,0.246 0,0.433 0.012,0.562 0.004,0.137 0.035,0.258 0.097,0.371 0.047,0.102 0.129,0.18 0.239,0.227 0.109,0.055 0.254,0.078 0.441,0.074 0.129,0.004 0.258,-0.015 0.383,-0.058 0.121,-0.036 0.211,-0.067 0.265,-0.098 l 0.047,0 0,0.726 c -0.152,0.047 -0.308,0.079 -0.461,0.102 -0.16,0.023 -0.304,0.035 -0.433,0.035 z m 4.172,-1.273 0,-1.336 c -0.196,0.023 -0.438,0.047 -0.731,0.074 -0.293,0.031 -0.527,0.074 -0.707,0.125 -0.219,0.07 -0.398,0.172 -0.535,0.305 -0.145,0.14 -0.215,0.328 -0.211,0.566 -0.004,0.277 0.074,0.484 0.231,0.625 0.156,0.141 0.382,0.211 0.679,0.211 0.254,0 0.485,-0.055 0.692,-0.164 0.207,-0.109 0.398,-0.242 0.582,-0.406 z m 0,0.668 c -0.071,0.054 -0.157,0.121 -0.266,0.207 -0.109,0.086 -0.219,0.156 -0.32,0.207 -0.149,0.074 -0.285,0.129 -0.414,0.168 -0.137,0.039 -0.325,0.058 -0.559,0.062 -0.203,-0.004 -0.391,-0.043 -0.566,-0.113 -0.18,-0.074 -0.336,-0.176 -0.465,-0.313 -0.133,-0.128 -0.235,-0.289 -0.313,-0.484 -0.078,-0.191 -0.117,-0.394 -0.113,-0.613 -0.004,-0.328 0.066,-0.613 0.211,-0.848 0.137,-0.234 0.359,-0.418 0.664,-0.558 0.27,-0.118 0.586,-0.204 0.953,-0.254 0.363,-0.047 0.758,-0.082 1.188,-0.11 l 0,-0.152 c -0.004,-0.188 -0.032,-0.34 -0.086,-0.457 -0.059,-0.113 -0.141,-0.203 -0.242,-0.27 -0.106,-0.062 -0.231,-0.105 -0.379,-0.129 -0.153,-0.019 -0.305,-0.031 -0.457,-0.035 -0.192,0.004 -0.411,0.032 -0.661,0.086 -0.25,0.059 -0.503,0.141 -0.753,0.242 l -0.047,0 0,-0.82 c 0.144,-0.039 0.359,-0.086 0.64,-0.141 0.278,-0.046 0.551,-0.074 0.825,-0.078 0.328,0.004 0.605,0.032 0.832,0.078 0.222,0.055 0.429,0.145 0.613,0.278 0.172,0.133 0.301,0.305 0.39,0.512 0.082,0.21 0.125,0.464 0.129,0.765 l 0,3.281 -0.804,0 0,-0.511 z m 4.164,-1.899 -2.422,0 0,-0.777 2.422,0 0,0.777 z m 5,-0.117 c -0.004,0.805 -0.196,1.441 -0.574,1.91 -0.383,0.477 -0.868,0.711 -1.45,0.711 -0.242,0 -0.453,-0.027 -0.633,-0.082 -0.187,-0.055 -0.375,-0.137 -0.562,-0.254 l 0,2.012 -0.805,0 0,-6.57 0.805,0 0,0.504 c 0.195,-0.176 0.418,-0.329 0.668,-0.454 0.242,-0.121 0.512,-0.183 0.805,-0.183 0.547,0 0.976,0.219 1.285,0.656 0.304,0.438 0.457,1.024 0.461,1.75 z m -0.832,0.09 c -0.004,-0.547 -0.09,-0.969 -0.262,-1.274 -0.176,-0.296 -0.461,-0.449 -0.852,-0.453 -0.23,0.004 -0.453,0.055 -0.664,0.153 -0.218,0.105 -0.422,0.238 -0.609,0.394 l 0,2.719 c 0.211,0.109 0.395,0.18 0.543,0.211 0.148,0.039 0.32,0.055 0.519,0.055 0.418,0 0.743,-0.153 0.977,-0.457 0.227,-0.305 0.344,-0.754 0.348,-1.348 z m 4.215,-1.496 -0.043,0 c -0.063,-0.012 -0.125,-0.024 -0.192,-0.028 -0.07,-0.003 -0.152,-0.003 -0.242,-0.007 -0.223,0.004 -0.441,0.05 -0.652,0.14 -0.219,0.098 -0.422,0.239 -0.61,0.422 l 0,3.406 -0.804,0 0,-4.8 0.804,0 0,0.714 c 0.293,-0.257 0.551,-0.441 0.774,-0.55 0.215,-0.106 0.429,-0.16 0.636,-0.164 0.082,0.004 0.145,0.004 0.188,0.007 0.039,0.008 0.086,0.016 0.141,0.02 l 0,0.84 z m 4.582,1.535 c -0.004,0.812 -0.2,1.434 -0.586,1.871 -0.391,0.438 -0.907,0.656 -1.551,0.66 -0.672,-0.004 -1.199,-0.226 -1.578,-0.679 -0.383,-0.454 -0.571,-1.071 -0.571,-1.852 0,-0.797 0.196,-1.422 0.59,-1.867 0.391,-0.446 0.91,-0.668 1.559,-0.668 0.644,0 1.16,0.222 1.551,0.664 0.386,0.445 0.582,1.07 0.586,1.871 z m -0.832,0 c -0.004,-0.617 -0.118,-1.082 -0.34,-1.387 -0.231,-0.301 -0.551,-0.449 -0.965,-0.453 -0.426,0.004 -0.75,0.152 -0.977,0.453 -0.226,0.305 -0.34,0.77 -0.34,1.387 0,0.605 0.114,1.062 0.34,1.371 0.227,0.313 0.551,0.465 0.977,0.465 0.41,0 0.73,-0.152 0.961,-0.457 0.226,-0.305 0.34,-0.762 0.344,-1.379 z m 4.55,1.098 0,-2.637 c -0.203,-0.094 -0.39,-0.16 -0.558,-0.207 -0.172,-0.039 -0.34,-0.063 -0.508,-0.063 -0.41,0 -0.734,0.153 -0.969,0.454 -0.238,0.3 -0.355,0.73 -0.351,1.292 -0.004,0.532 0.086,0.938 0.269,1.215 0.176,0.282 0.469,0.422 0.871,0.418 0.207,0.004 0.422,-0.039 0.645,-0.125 0.222,-0.082 0.422,-0.199 0.601,-0.347 z m -2.715,2.07 c 0.051,0.019 0.133,0.051 0.239,0.09 0.105,0.035 0.226,0.074 0.363,0.113 0.148,0.035 0.285,0.063 0.41,0.086 0.125,0.02 0.262,0.031 0.414,0.035 0.246,-0.004 0.457,-0.035 0.633,-0.097 0.172,-0.067 0.309,-0.161 0.406,-0.274 0.09,-0.121 0.153,-0.258 0.192,-0.41 0.035,-0.156 0.054,-0.328 0.058,-0.527 l 0,-0.422 c -0.222,0.191 -0.437,0.332 -0.64,0.422 -0.211,0.089 -0.473,0.132 -0.785,0.132 -0.551,0 -0.985,-0.203 -1.309,-0.609 -0.324,-0.406 -0.488,-0.988 -0.484,-1.754 -0.004,-0.394 0.054,-0.75 0.168,-1.058 0.109,-0.305 0.257,-0.567 0.449,-0.786 0.179,-0.203 0.394,-0.359 0.64,-0.476 0.246,-0.11 0.5,-0.168 0.766,-0.168 0.246,0 0.461,0.031 0.645,0.09 0.179,0.058 0.363,0.14 0.55,0.25 l 0.047,-0.207 0.762,0 0,4.254 c -0.004,0.816 -0.184,1.41 -0.535,1.793 -0.36,0.378 -0.903,0.57 -1.629,0.57 -0.238,0 -0.477,-0.02 -0.719,-0.055 -0.246,-0.039 -0.473,-0.09 -0.683,-0.148 l 0,-0.844 0.042,0 z m 7.235,-4.703 -0.043,0 c -0.063,-0.012 -0.125,-0.024 -0.192,-0.028 -0.07,-0.003 -0.152,-0.003 -0.242,-0.007 -0.222,0.004 -0.441,0.05 -0.652,0.14 -0.219,0.098 -0.422,0.239 -0.609,0.422 l 0,3.406 -0.805,0 0,-4.8 0.805,0 0,0.714 c 0.293,-0.257 0.55,-0.441 0.773,-0.55 0.215,-0.106 0.43,-0.16 0.637,-0.164 0.082,0.004 0.144,0.004 0.187,0.007 0.039,0.008 0.086,0.016 0.141,0.02 l 0,0.84 z m 3.316,2.754 0,-1.336 c -0.195,0.023 -0.437,0.047 -0.73,0.074 -0.293,0.031 -0.528,0.074 -0.707,0.125 -0.219,0.07 -0.399,0.172 -0.535,0.305 -0.145,0.14 -0.215,0.328 -0.211,0.566 -0.004,0.277 0.074,0.484 0.23,0.625 0.156,0.141 0.383,0.211 0.68,0.211 0.254,0 0.484,-0.055 0.691,-0.164 0.207,-0.109 0.399,-0.242 0.582,-0.406 z m 0,0.668 c -0.07,0.054 -0.156,0.121 -0.265,0.207 -0.11,0.086 -0.219,0.156 -0.321,0.207 -0.148,0.074 -0.285,0.129 -0.414,0.168 -0.136,0.039 -0.324,0.058 -0.558,0.062 -0.203,-0.004 -0.391,-0.043 -0.567,-0.113 -0.179,-0.074 -0.336,-0.176 -0.465,-0.313 -0.132,-0.128 -0.234,-0.289 -0.312,-0.484 -0.078,-0.191 -0.117,-0.394 -0.113,-0.613 -0.004,-0.328 0.066,-0.613 0.211,-0.848 0.136,-0.234 0.359,-0.418 0.664,-0.558 0.269,-0.118 0.586,-0.204 0.953,-0.254 0.363,-0.047 0.758,-0.082 1.187,-0.11 l 0,-0.152 c -0.004,-0.188 -0.031,-0.34 -0.086,-0.457 -0.058,-0.113 -0.14,-0.203 -0.242,-0.27 -0.105,-0.062 -0.23,-0.105 -0.379,-0.129 -0.152,-0.019 -0.304,-0.031 -0.457,-0.035 -0.191,0.004 -0.41,0.032 -0.66,0.086 -0.25,0.059 -0.504,0.141 -0.754,0.242 l -0.047,0 0,-0.82 c 0.145,-0.039 0.36,-0.086 0.641,-0.141 0.277,-0.046 0.551,-0.074 0.824,-0.078 0.328,0.004 0.606,0.032 0.832,0.078 0.223,0.055 0.43,0.145 0.613,0.278 0.172,0.133 0.301,0.305 0.391,0.512 0.082,0.21 0.125,0.464 0.129,0.765 l 0,3.281 -0.805,0 0,-0.511 z m 7.391,0.511 0,-2.777 c -0.004,-0.219 -0.012,-0.422 -0.027,-0.609 -0.02,-0.188 -0.055,-0.332 -0.106,-0.442 -0.059,-0.109 -0.141,-0.195 -0.246,-0.254 -0.105,-0.05 -0.246,-0.078 -0.426,-0.082 -0.168,0.004 -0.347,0.055 -0.535,0.153 -0.191,0.105 -0.391,0.254 -0.594,0.441 0,0.055 0.004,0.113 0.012,0.176 0,0.07 0.004,0.148 0.008,0.234 l 0,3.16 -0.809,0 0,-2.777 c -0.004,-0.219 -0.011,-0.422 -0.027,-0.609 -0.016,-0.188 -0.051,-0.332 -0.106,-0.442 -0.058,-0.109 -0.14,-0.195 -0.246,-0.254 -0.105,-0.05 -0.25,-0.078 -0.429,-0.082 -0.176,0.004 -0.36,0.059 -0.551,0.164 -0.192,0.114 -0.379,0.254 -0.559,0.418 l 0,3.582 -0.804,0 0,-4.8 0.804,0 0,0.535 c 0.211,-0.211 0.422,-0.375 0.629,-0.492 0.207,-0.118 0.438,-0.176 0.688,-0.176 0.281,0 0.531,0.066 0.754,0.195 0.214,0.129 0.382,0.34 0.5,0.637 0.242,-0.274 0.48,-0.481 0.714,-0.621 0.231,-0.141 0.481,-0.211 0.754,-0.211 0.207,0 0.395,0.035 0.563,0.097 0.168,0.071 0.316,0.172 0.445,0.313 0.125,0.148 0.223,0.332 0.297,0.547 0.066,0.219 0.102,0.492 0.105,0.816 l 0,3.16 -0.808,0 z m 7.391,0 0,-2.777 c -0.004,-0.219 -0.012,-0.422 -0.028,-0.609 -0.019,-0.188 -0.055,-0.332 -0.105,-0.442 -0.059,-0.109 -0.141,-0.195 -0.246,-0.254 -0.106,-0.05 -0.246,-0.078 -0.426,-0.082 -0.168,0.004 -0.348,0.055 -0.535,0.153 -0.192,0.105 -0.391,0.254 -0.594,0.441 0,0.055 0.004,0.113 0.012,0.176 0,0.07 0.004,0.148 0.007,0.234 l 0,3.16 -0.808,0 0,-2.777 c -0.004,-0.219 -0.012,-0.422 -0.027,-0.609 -0.016,-0.188 -0.051,-0.332 -0.106,-0.442 -0.059,-0.109 -0.141,-0.195 -0.246,-0.254 -0.106,-0.05 -0.25,-0.078 -0.43,-0.082 -0.176,0.004 -0.359,0.059 -0.551,0.164 -0.191,0.114 -0.378,0.254 -0.558,0.418 l 0,3.582 -0.805,0 0,-4.8 0.805,0 0,0.535 c 0.211,-0.211 0.422,-0.375 0.629,-0.492 0.207,-0.118 0.437,-0.176 0.687,-0.176 0.282,0 0.532,0.066 0.754,0.195 0.215,0.129 0.383,0.34 0.5,0.637 0.242,-0.274 0.481,-0.481 0.715,-0.621 0.231,-0.141 0.481,-0.211 0.754,-0.211 0.207,0 0.394,0.035 0.562,0.097 0.168,0.071 0.317,0.172 0.446,0.313 0.125,0.148 0.222,0.332 0.297,0.547 0.066,0.219 0.101,0.492 0.105,0.816 l 0,3.16 -0.808,0 z m 4.027,0.114 c -0.77,-0.004 -1.363,-0.215 -1.781,-0.645 -0.426,-0.43 -0.637,-1.043 -0.633,-1.84 -0.004,-0.781 0.203,-1.402 0.613,-1.867 0.41,-0.461 0.945,-0.695 1.609,-0.695 0.293,0 0.555,0.043 0.79,0.129 0.226,0.086 0.429,0.222 0.601,0.406 0.172,0.184 0.301,0.406 0.395,0.672 0.086,0.265 0.132,0.59 0.136,0.973 l 0,0.437 -3.324,0 c -0.004,0.563 0.137,0.988 0.422,1.281 0.277,0.297 0.668,0.446 1.164,0.442 0.176,0.004 0.348,-0.016 0.52,-0.059 0.168,-0.039 0.324,-0.094 0.464,-0.156 0.145,-0.063 0.266,-0.125 0.368,-0.188 0.097,-0.062 0.179,-0.121 0.25,-0.175 l 0.046,0 0,0.878 c -0.097,0.04 -0.214,0.086 -0.351,0.141 -0.145,0.055 -0.27,0.098 -0.379,0.129 -0.16,0.043 -0.301,0.074 -0.426,0.102 -0.129,0.019 -0.293,0.031 -0.484,0.035 z m 0.945,-3.047 c -0.008,-0.215 -0.035,-0.403 -0.078,-0.563 -0.047,-0.156 -0.109,-0.289 -0.195,-0.402 -0.098,-0.117 -0.223,-0.211 -0.367,-0.273 -0.149,-0.063 -0.329,-0.094 -0.543,-0.094 -0.219,0 -0.403,0.035 -0.551,0.097 -0.153,0.067 -0.289,0.157 -0.41,0.278 -0.121,0.129 -0.211,0.269 -0.274,0.422 -0.062,0.156 -0.105,0.336 -0.121,0.535 l 2.539,0 z m 3.934,0.476 c 0,0.891 -0.145,1.668 -0.426,2.336 -0.289,0.668 -0.68,1.297 -1.18,1.891 l -0.984,0 0,-0.043 c 0.219,-0.199 0.441,-0.441 0.668,-0.73 0.223,-0.29 0.418,-0.606 0.586,-0.95 0.176,-0.367 0.316,-0.758 0.422,-1.172 0.101,-0.41 0.152,-0.851 0.156,-1.332 -0.004,-0.468 -0.059,-0.918 -0.16,-1.339 -0.11,-0.422 -0.246,-0.809 -0.418,-1.165 -0.18,-0.355 -0.379,-0.675 -0.598,-0.96 -0.219,-0.282 -0.437,-0.524 -0.656,-0.723 l 0,-0.043 0.984,0 c 0.5,0.598 0.891,1.226 1.176,1.894 0.285,0.668 0.43,1.45 0.43,2.336 z" /></g><path
       inkscape:connector-curvature="0"
       id="path3136"
       style="fill:#cccccc;fill-opacity:0.42352899;fill-rule:nonzero;stroke:none"
       d="m 198.68,783.241 93.434,0 0,-43.855 -93.434,0 0,43.855 z" /><g
       transform="matrix(1,0,0,-1,0,841.88977)"
       id="g3138"><path
         inkscape:connector-curvature="0"
         id="path3140"
         style="fill:none;stroke:#808080;stroke-width:1.42881095;stroke-linecap:butt;stroke-linejoin:miter;stroke-miterlimit:4;stroke-opacity:1;stroke-dasharray:none"
         d="m 198.68,58.648 93.434,0 0,43.855 -93.434,0 0,-43.855 z" /></g><text
       id="text3142"
       transform="scale(1,-1)"
       x="204.89491"
       y="-769.59827"><tspan
         id="tspan3144"
         sodipodi:role="line"
         y="-769.59827"
         x="204.89491 212.27811 217.04771 221.9053 226.5341 228.54051 233.16931"
         style="font-size:8.80000019px;font-variant:normal;font-weight:normal;writing-mode:lr-tb;fill:#000000;fill-opacity:1;fill-rule:nonzero;stroke:none;font-family:Tahoma;-inkscape-font-specification:Tahoma">modèle </tspan></text>
<text
       id="text3146"
       transform="scale(1,-1)"
       x="235.91492"
       y="-769.59827"><tspan
         id="tspan3148"
         y="-769.59827"
         x="235.91492"
         style="font-size:8.80000019px;font-variant:normal;writing-mode:lr-tb;fill:#000000;fill-opacity:1;fill-rule:nonzero;stroke:none;font-family:CairoFont-1;-inkscape-font-specification:CairoFont-1-0">M</tspan></text>
<text
       id="text3150"
       transform="scale(1,-1)"
       x="246.51891"
       y="-769.59827"><tspan
         id="tspan3152"
         sodipodi:role="line"
         y="-769.59827"
         x="246.51891 250.44371 255.30132 259.95651 264.01331 266.01971 268.81812 270.82452 275.6821 280.58371 285.21252"
         style="font-size:8.80000019px;font-variant:normal;font-weight:normal;writing-mode:lr-tb;fill:#000000;fill-opacity:1;fill-rule:nonzero;stroke:none;font-family:Tahoma;-inkscape-font-specification:Tahoma">spécifique </tspan><tspan
         id="tspan3154"
         sodipodi:role="line"
         y="-758.59827"
         x="224.8582 229.46939 232.215 237.11659 242.01819 244.76379 247.95819 252.7278 257.58539 262.35498"
         style="font-size:8.80000019px;font-variant:normal;font-weight:normal;writing-mode:lr-tb;fill:#000000;fill-opacity:1;fill-rule:nonzero;stroke:none;font-family:Tahoma;-inkscape-font-specification:Tahoma">à un robot</tspan><tspan
         id="tspan3156"
         sodipodi:role="line"
         y="-747.59827"
         x="215.12148 218.48308 221.28148 223.28787 227.34468 232.24628 234.25269 238.88148 242.04948 244.79507 249.72308 254.35188 258.96307 263.82068 268.47589 271.64389"
         style="font-size:8.80000019px;font-variant:normal;font-weight:normal;writing-mode:lr-tb;fill:#000000;fill-opacity:1;fill-rule:nonzero;stroke:none;font-family:Tahoma;-inkscape-font-specification:Tahoma">(fichier header)</tspan></text>
<path
       inkscape:connector-curvature="0"
       id="path3158"
       style="fill:#cccccc;fill-opacity:0.42352899;fill-rule:nonzero;stroke:none"
       d="m 365.883,701.691 93.434,0 0,-43.852 -93.434,0 0,43.852 z" /><g
       transform="matrix(1,0,0,-1,0,841.88977)"
       id="g3160"><path
         inkscape:connector-curvature="0"
         id="path3162"
         style="fill:none;stroke:#808080;stroke-width:1.42881095;stroke-linecap:butt;stroke-linejoin:miter;stroke-miterlimit:4;stroke-opacity:1;stroke-dasharray:none"
         d="m 365.883,140.199 93.434,0 0,43.852 -93.434,0 0,-43.852 z" /></g><text
       id="text3164"
       transform="scale(1,-1)"
       x="391.79684"
       y="-688.30792"><tspan
         id="tspan3166"
         sodipodi:role="line"
         y="-688.30792"
         x="391.79684 396.40802 398.41443 403.27203 408.04163 411.20963 413.21603 416.15524 421.05682 428.44003 433.09525"
         style="font-size:8.80000019px;font-variant:normal;font-weight:normal;writing-mode:lr-tb;fill:#000000;fill-opacity:1;fill-rule:nonzero;stroke:none;font-family:Tahoma;-inkscape-font-specification:Tahoma">algorithme </tspan><tspan
         id="tspan3168"
         sodipodi:role="line"
         y="-677.30792"
         x="373.50934 378.36694 382.74933 387.65094 392.26212 399.64532 401.65173 406.50934 411.41092 416.06613 418.81174 423.58133 428.43893 431.37814 433.38452 440.76773 442.77414 446.69894 451.32773"
         style="font-size:8.80000019px;font-variant:normal;font-weight:normal;writing-mode:lr-tb;fill:#000000;fill-opacity:1;fill-rule:nonzero;stroke:none;font-family:Tahoma;-inkscape-font-specification:Tahoma">dynamique optimisé </tspan><tspan
         id="tspan3170"
         sodipodi:role="line"
         y="-666.30792"
         x="382.73901 386.66382 391.52142 396.15021 400.20703 402.21341 405.01181 407.01822 411.87582 416.7774 421.43262 424.17822 428.78943"
         style="font-size:8.80000019px;font-variant:normal;font-weight:normal;writing-mode:lr-tb;fill:#000000;fill-opacity:1;fill-rule:nonzero;stroke:none;font-family:Tahoma;-inkscape-font-specification:Tahoma">spécifique à </tspan></text>
<text
       id="text3172"
       transform="scale(1,-1)"
       x="434.28061"
       y="-666.30792"><tspan
         id="tspan3174"
         y="-666.30792"
         x="434.28061"
         style="font-size:8.80000019px;font-variant:normal;writing-mode:lr-tb;fill:#000000;fill-opacity:1;fill-rule:nonzero;stroke:none;font-family:CairoFont-1;-inkscape-font-specification:CairoFont-1-0">M</tspan></text>
<g
       transform="matrix(1,0,0,-1,0,841.88977)"
       id="g3176"><path
         inkscape:connector-curvature="0"
         id="path3178"
         style="fill:none;stroke:#000000;stroke-width:2.4000001;stroke-linecap:butt;stroke-linejoin:miter;stroke-miterlimit:4;stroke-opacity:1;stroke-dasharray:none"
         d="m 126.844,162.125 54.761,0" /></g><g
       transform="matrix(-1,0,0,1,0,841.88977)"
       id="g3180"><path
         inkscape:connector-curvature="0"
         id="path3182"
         style="fill:#000000;fill-opacity:1;fill-rule:evenodd;stroke:#000000;stroke-width:0.60000002;stroke-linecap:butt;stroke-linejoin:miter;stroke-miterlimit:4;stroke-opacity:1;stroke-dasharray:none"
         d="m -178.727,-162.125 2.403,-2.398 -8.403,2.398 8.403,2.402 -2.403,-2.402 z" /></g><g
       transform="matrix(1,0,0,-1,0,841.88977)"
       id="g3184"><path
         inkscape:connector-curvature="0"
         id="path3186"
         style="fill:none;stroke:#000000;stroke-width:2.4000001;stroke-linecap:butt;stroke-linejoin:miter;stroke-miterlimit:4;stroke-opacity:1;stroke-dasharray:none"
         d="m 310.406,162.125 54.762,0" /></g><g
       transform="matrix(-1,0,0,1,0,841.88977)"
       id="g3188"><path
         inkscape:connector-curvature="0"
         id="path3190"
         style="fill:#000000;fill-opacity:1;fill-rule:evenodd;stroke:#000000;stroke-width:0.60000002;stroke-linecap:butt;stroke-linejoin:miter;stroke-miterlimit:4;stroke-opacity:1;stroke-dasharray:none"
         d="m -362.289,-162.125 2.398,-2.398 -8.398,2.398 8.398,2.402 -2.398,-2.402 z" /></g><g
       transform="matrix(1,0,0,-1,0,841.88977)"
       id="g3192"><path
         inkscape:connector-curvature="0"
         id="path3194"
         style="fill:none;stroke:#000000;stroke-width:2.4000001;stroke-linecap:butt;stroke-linejoin:miter;stroke-miterlimit:3;stroke-opacity:1;stroke-dasharray:none"
         d="m 245.367,103.219 0,33.101" /></g><g
       transform="matrix(0,1,1,0,0,841.88977)"
       id="g3196"><path
         inkscape:connector-curvature="0"
         id="path3198"
         style="fill:#000000;fill-opacity:1;fill-rule:evenodd;stroke:#000000;stroke-width:0.60000002;stroke-linecap:butt;stroke-linejoin:miter;stroke-miterlimit:4;stroke-opacity:1;stroke-dasharray:none"
         d="m -133.441,245.367 2.398,-2.398 -8.398,2.398 8.398,2.403 -2.398,-2.403 z" /></g></g></svg>